<svg width="597" height="246" viewBox="0 0 597 246" fill="none" xmlns="http://www.w3.org/2000/svg">
<path fill-rule="evenodd" clip-rule="evenodd" d="M0 0H597V246H0V0Z" fill="white"/>
<path fill-rule="evenodd" clip-rule="evenodd" d="M131.15 151.215C166.687 151.215 199.514 146.431 218.964 138.416C230.083 133.834 235.962 128.504 235.962 123C235.962 117.497 230.083 112.165 218.964 107.583C199.514 99.5685 166.687 94.7839 131.15 94.7839C73.3567 94.7839 26.3384 107.442 26.3384 123C26.3384 128.504 32.2169 133.834 43.3357 138.416C62.786 146.431 95.6162 151.215 131.15 151.215V151.215ZM264.639 130.175C264.731 131.745 266.568 134.731 278.604 134.731C285.126 134.731 292.383 134.064 292.383 131.077C292.383 128.878 287.421 128.287 280.412 127.58L273.298 126.875C262.588 125.813 252.278 124.791 252.278 118.584C252.278 115.442 256.236 109.944 277.733 109.944C298.042 109.944 303.477 115.558 303.567 119.016H290.302C289.93 117.759 288.821 114.772 276.718 114.772C271.449 114.772 265.168 115.598 265.168 118.152C265.168 120.352 269.418 120.823 272.189 121.098L288.341 122.788C297.36 123.73 305.655 125.301 305.655 130.368C305.655 138.818 285.402 139.558 279.617 139.558C255.52 139.558 251.373 133.668 251.373 130.172H264.639V130.175ZM331.888 126.202V138.81H318.09V110.697H331.888V121.373H357.796V110.697H371.6V138.81H357.796V126.202H331.888V126.202ZM383.632 124.754C383.632 137.947 406.65 139.555 415.403 139.555C424.156 139.555 447.168 137.947 447.168 124.754C447.168 111.559 424.156 109.951 415.403 109.951C406.65 109.951 383.632 111.559 383.632 124.754ZM506.953 115.681H471.849V121.592H504.097V126.571H471.849V133.824H508.52V138.805H458.311V110.702H506.953V115.681V115.681ZM529.649 130.175C529.745 131.745 531.578 134.731 543.617 134.731C550.137 134.731 557.396 134.064 557.396 131.077C557.396 128.878 552.435 128.287 545.426 127.58L538.312 126.875C527.598 125.813 517.291 124.791 517.291 118.584C517.291 115.442 521.246 109.944 542.747 109.944C563.055 109.944 568.487 115.558 568.583 119.016H555.312C554.943 117.759 553.835 114.772 541.731 114.772C536.463 114.772 530.181 115.598 530.181 118.152C530.181 120.352 534.428 120.823 537.2 121.098L553.351 122.788C562.37 123.73 570.665 125.301 570.665 130.368C570.665 138.818 550.418 139.558 544.63 139.558C520.531 139.558 516.387 133.668 516.387 130.172H529.649V130.175Z" fill="black"/>
<path fill-rule="evenodd" clip-rule="evenodd" d="M30.5041 123C30.5041 117.961 35.9614 113.051 46.2812 108.798C64.9696 101.099 96.694 96.5005 131.15 96.5005C165.606 96.5005 197.334 101.099 216.019 108.798C226.339 113.051 231.796 117.963 231.796 123C231.796 137.613 186.648 149.501 131.15 149.501C96.694 149.501 64.9696 144.901 46.2812 137.202C35.9614 132.949 30.5041 128.039 30.5041 123V123Z" fill="white"/>
<path fill-rule="evenodd" clip-rule="evenodd" d="M196.671 104.695L196.987 104.009L197.154 103.642H191.935C175.325 100.185 154.178 98.1136 131.15 98.1136C108.076 98.1136 86.8914 100.194 70.2657 103.663H64.1488L64.3129 104.028L64.7094 104.913C46.0613 109.45 34.419 115.875 34.419 122.999C34.419 136.742 77.7268 147.884 131.147 147.884C184.57 147.884 227.875 136.742 227.875 122.999C227.878 115.76 215.855 109.242 196.671 104.695V104.695Z" fill="black"/>
<path fill-rule="evenodd" clip-rule="evenodd" d="M397.436 124.753C397.436 116.887 407.939 114.93 415.403 114.93C422.867 114.93 433.37 116.888 433.37 124.753C433.37 132.618 422.867 134.574 415.403 134.574C407.939 134.574 397.436 132.618 397.436 124.753V124.753ZM109.309 139.31L110.594 135.709H121.806L123.144 139.31H134.353L122.044 112.114H110.594L98.289 139.31H109.309Z" fill="white"/>
<path fill-rule="evenodd" clip-rule="evenodd" d="M156.501 126.969L156.07 120.767V112.11H166.864V139.31H156.308L144.041 124.5L144.471 130.698V139.31H133.677V112.111H144.233L156.501 126.969ZM187.661 120.044C187.469 119.099 186.85 118.531 186.035 118.175C185.655 118.015 185.2 117.89 184.698 117.805C184.196 117.721 183.657 117.681 183.115 117.686C180.628 117.686 179.525 118.25 179.525 119.228C179.525 123.291 199.316 120.771 199.316 130.628C199.316 136.939 192.676 140.001 183.208 140.001C174.127 140.001 168.205 135.806 167.966 130.89H178.763C179.002 131.874 179.667 132.592 180.64 133.053C181.547 133.506 182.74 133.733 183.839 133.733C186.658 133.733 188.519 133.016 188.519 131.722C188.519 127.624 168.728 130.44 168.728 120.118C168.728 114.329 175.034 111.416 183.638 111.416C193.199 111.416 197.544 115.275 198.356 120.043H187.661V120.044V120.044Z" fill="white"/>
<path fill-rule="evenodd" clip-rule="evenodd" d="M196.25 103.951L96.8612 103.973L88.4431 127.468L80.347 103.973H65.0501L80.8612 139.305H96.09L109.241 110.39H193.298L196.25 103.951ZM200.635 138.949C202.723 138.949 204.494 138.279 204.494 137.359C204.494 136.451 202.723 135.779 200.635 135.779C198.526 135.779 196.755 136.451 196.755 137.359C196.75 137.569 196.847 137.777 197.041 137.972C197.235 138.166 197.521 138.342 197.882 138.491C198.244 138.639 198.674 138.756 199.146 138.834C199.619 138.913 200.125 138.952 200.635 138.949V138.949ZM103.158 142.845C104.74 142.997 105.481 143.337 105.481 143.651C105.481 144.922 100.008 145.126 97.7532 145.126C97.1431 145.126 95.2321 145.126 95.2321 144.755C95.2321 144.621 95.7803 144.281 96.0312 144.187C96.2201 144.121 97.1431 144.002 97.3815 144.002C97.459 144.002 97.5054 144.007 97.5054 144.044C97.5054 144.109 97.3506 144.141 97.2391 144.166C97.1431 144.194 97.0548 144.227 96.9758 144.263V144.276C102.569 144.358 104.102 143.7 104.102 143.598C104.102 143.272 99.7602 143.018 99.0076 142.965C98.2271 142.915 97.4125 142.813 97.4125 142.429C97.4125 142.22 97.6479 141.754 97.9112 141.582C98.3819 141.255 101.234 140.648 104.666 140.648C105.326 140.648 105.982 140.68 106.642 140.737C107.001 140.769 107.051 140.819 107.051 140.949C107.051 141.422 106.658 141.529 105.732 141.676C105.059 141.778 104.932 141.81 104.319 141.99C104.208 142.016 104.053 142.053 103.929 142.053C103.771 142.053 103.678 142.021 103.678 141.958C103.678 141.946 103.975 141.746 104.824 141.509L104.793 141.496C100.748 141.554 98.9921 142.15 98.9921 142.294C98.9704 142.383 98.7815 142.429 103.158 142.845V142.845ZM109.835 142.697C110.51 142.697 111.093 142.386 111.093 142.132C111.093 142.017 110.857 141.933 110.576 141.933C109.962 141.933 109.21 142.165 109.21 142.424C109.21 142.579 109.461 142.697 109.835 142.697V142.697ZM129.177 143.834C128.344 144.104 127.028 144.569 125.91 144.569C125.405 144.569 124.9 144.488 124.934 144.243L124.965 144.104C127.988 143.7 128.756 143.226 128.756 142.914C128.756 142.658 128.127 142.608 127.626 142.608C125.969 142.603 124.185 143.164 123.593 143.824C122.682 144.111 121.335 144.549 120.155 144.549C119.337 144.549 118.963 144.35 118.963 144.203C118.963 144.026 119.245 143.929 119.588 143.827L120.905 143.426C120.92 143.546 121.078 143.708 121.437 143.708C121.862 143.708 123.101 143.214 123.101 142.863C123.101 142.672 122.881 142.57 122.394 142.57C121.518 142.57 120.01 142.915 119.306 143.132C118.597 143.352 118.157 143.517 117.956 143.778L117.055 144.084C116.773 144.179 116.082 144.404 115.704 144.404C115.631 144.403 115.56 144.391 115.508 144.369C115.456 144.348 115.425 144.319 115.423 144.289C115.423 143.847 117.352 143.361 117.352 143.112C117.309 142.993 117.23 142.877 117.117 142.766C117.024 142.679 116.928 142.646 116.866 142.646C116.411 142.646 113.524 143.431 112.27 144.084C112.208 144.114 112.068 144.171 111.957 144.171C111.934 144.171 111.912 144.17 111.891 144.166C111.87 144.163 111.851 144.158 111.834 144.151C111.818 144.145 111.805 144.137 111.797 144.128C111.788 144.12 111.783 144.11 111.783 144.101C111.783 143.949 113.759 143.303 113.759 143.055C113.759 143.015 113.837 142.924 112.895 142.913C112.629 142.913 112.49 142.921 112.285 142.991C111.619 143.22 110.913 143.629 110.6 144.005L110.576 143.961C109.947 144.146 109.132 144.484 108.299 144.484C107.577 144.484 107.339 144.342 107.466 144.081C108.126 143.896 109.677 143.328 109.677 143.009C109.677 142.867 109.253 142.829 108.987 142.829C108.045 142.829 106.082 143.589 106.082 144.369C106.082 144.693 106.506 145.127 107.432 145.127C108.488 145.127 109.69 144.678 110.442 144.332C110.442 144.352 110.43 144.372 110.433 144.392C110.449 144.609 110.622 145.012 111.31 145.012C111.734 145.012 112.313 144.698 112.548 144.576C113.255 144.204 114.054 143.873 114.964 143.598L114.995 143.611C114.493 143.905 113.645 144.327 113.645 144.71C113.645 144.927 113.927 145.131 114.524 145.131C115.547 145.131 116.937 144.508 117.817 144.159L117.814 144.179C117.814 144.652 118.393 145.111 119.595 145.111C120.886 145.111 122.379 144.637 123.376 144.238C123.376 144.258 123.361 144.275 123.364 144.295C123.395 144.716 123.927 145.132 125.067 145.132C126.628 145.132 128.356 144.531 129.313 144.078L129.177 143.834V143.834ZM139.237 141.88C139.101 141.907 138.959 141.928 138.813 141.943C138.639 141.943 138.67 141.836 138.686 141.796C138.717 141.611 139.029 141.555 139.407 141.464C139.924 141.342 141.696 140.916 142.136 140.916C142.545 140.916 142.857 141.26 142.857 141.355C142.857 141.541 142.857 141.522 140.395 143.227C139.847 143.606 138.562 144.506 138.562 144.934C138.562 145.012 138.608 145.081 138.608 145.159C138.608 145.216 138.531 145.246 138.388 145.246C138.271 145.236 138.159 145.216 138.06 145.188C137.465 145.056 136.79 145.011 136.79 144.678C136.79 144.359 137.465 143.651 137.886 143.362C139.032 142.59 140.302 141.906 140.758 141.662L140.727 141.649L139.237 141.88V141.88ZM151.384 142.025C151.211 142.069 151.087 142.106 150.882 142.106C150.786 142.106 150.709 142.069 150.709 142.031C150.709 142.016 150.631 142.004 151.523 141.697L151.492 141.684C147.729 142.076 146.459 142.668 146.459 143.078C146.459 143.148 146.524 143.18 146.71 143.18C147.918 143.18 149.972 142.688 150.882 142.374C151.118 142.296 151.666 142.105 151.994 142.105C152.183 142.105 152.84 142.165 152.84 142.265C152.84 142.369 152.462 142.534 152.322 142.61L148.197 144.587C147.286 145.034 146.738 145.163 146.097 145.188C145.908 145.194 145.753 145.157 145.753 145.074C145.753 144.989 146.066 144.809 146.159 144.747C146.425 144.575 146.503 144.453 147.051 144.465L150.015 143.026L149.984 143.011C149.34 143.198 147.584 143.647 146.816 143.647C146.283 143.647 144.877 143.21 144.877 142.674C144.877 141.887 148.606 140.872 151.319 140.89C151.929 140.898 152.855 141.389 152.855 141.536C152.855 141.683 152.229 141.81 151.96 141.875L151.384 142.025V142.025ZM158.715 141.786C159.387 141.582 160.418 141.263 161.171 141.121C161.283 141.101 161.499 141.051 161.499 140.987C161.499 140.872 160.387 140.905 160.248 140.905C159.387 140.905 159.232 140.937 158.461 141.13C156.305 141.666 153.304 142.696 153.304 143.815C153.304 144.618 155.172 145.117 156.036 145.117C157.108 145.117 160.465 144.18 160.465 143.145C160.465 142.692 159.746 142.293 158.588 142.293C157.863 142.293 157.219 142.447 156.587 142.562L156.556 142.549L158.715 141.786V141.786ZM167.573 141.786C168.248 141.582 169.279 141.263 170.032 141.121C170.14 141.101 170.36 141.051 170.36 140.987C170.36 140.872 169.245 140.905 169.106 140.905C168.248 140.905 168.09 140.937 167.322 141.13C165.166 141.666 162.165 142.696 162.165 143.815C162.165 144.618 164.033 145.117 164.897 145.117C165.969 145.117 169.326 144.18 169.326 143.145C169.326 142.692 168.607 142.293 167.449 142.293C166.724 142.293 166.08 142.447 165.448 142.562L165.417 142.549L167.573 141.786V141.786Z" fill="white"/>
<path fill-rule="evenodd" clip-rule="evenodd" d="M119.852 130.033H112.744L116.225 120.312L119.852 130.033ZM197.52 137.359C197.52 136.611 198.879 136.043 200.635 136.043C202.373 136.043 203.726 136.611 203.726 137.359C203.726 138.125 202.37 138.685 200.635 138.685C198.879 138.685 197.52 138.125 197.52 137.359ZM127.183 142.977C127.294 142.964 127.375 143.004 127.375 143.049C127.39 143.157 126.445 143.598 125.058 143.79C125.482 143.369 126.396 143.062 127.183 142.977ZM158.43 142.757C158.854 142.757 158.885 142.867 158.885 142.998C158.839 143.771 156.603 144.392 155.469 144.466C155.076 144.493 155.076 144.167 155.076 144.065C155.076 143.697 155.311 143.619 155.989 143.375C156.494 143.199 157.752 142.757 158.43 142.757V142.757ZM167.291 142.757C167.715 142.757 167.746 142.867 167.746 142.998C167.7 143.771 165.464 144.392 164.33 144.466C163.937 144.493 163.937 144.167 163.937 144.065C163.937 143.697 164.172 143.619 164.85 143.375C165.355 143.199 166.613 142.757 167.291 142.757V142.757Z" fill="black"/>
<path fill-rule="evenodd" clip-rule="evenodd" d="M199.496 137.484H200.905C201.605 137.484 201.676 137.659 201.676 137.805C201.676 137.873 201.695 138.145 201.778 138.255H202.487V138.215C202.308 138.173 202.277 138.136 202.271 138.035L202.237 137.711C202.212 137.46 201.97 137.415 201.722 137.372C201.913 137.332 202.072 137.27 202.177 137.193C202.283 137.116 202.332 137.028 202.317 136.94C202.317 136.559 201.608 136.454 200.902 136.454H198.913V138.253H199.492V137.484H199.496V137.484Z" fill="white"/>
<path fill-rule="evenodd" clip-rule="evenodd" d="M199.496 136.663H200.945C201.233 136.663 201.719 136.686 201.719 136.964C201.719 137.231 201.27 137.276 200.846 137.276H199.499V136.663H199.496Z" fill="black"/>
</svg>
